<?xml version="1.0" encoding="utf-8"?>
<!-- Generator: Adobe Illustrator 24.1.2, SVG Export Plug-In . SVG Version: 6.00 Build 0)  -->
<svg version="1.1" id="Layer_1" xmlns="http://www.w3.org/2000/svg" xmlns:xlink="http://www.w3.org/1999/xlink" x="0px" y="0px"
	 viewBox="0 0 24 24" style="enable-background:new 0 0 24 24;" xml:space="preserve">
<style type="text/css">
	.st0{fill:none;}
	.st1{fill:#FFFFFF;}
</style>
<g>
	<rect class="st0" width="24" height="24"/>
</g>
<g>
	<path class="st1" d="M12,2C6.5,2,2,6.5,2,12s4.5,10,10,10s10-4.5,10-10S17.5,2,12,2z M12.9,17.8V19h-1.8v-1.3c-0.7-0.2-2.4-0.8-3-3
		L9.7,14c0.1,0.2,0.6,2.1,2.4,2.1c0.9,0,2-0.5,2-1.6c0-1-0.7-1.5-2.3-2c-1.1-0.4-3.3-1-3.3-3.3c0-0.1,0-2.4,2.6-3V5h1.8v1.2
		c1.8,0.3,2.5,1.8,2.7,2.2L14,9.1c-0.1-0.4-0.6-1.3-1.9-1.3c-0.7,0-1.8,0.4-1.8,1.4c0,0.9,0.9,1.3,2.6,1.9c2.4,0.8,3,2.1,3,3.4
		C15.9,17.2,13.4,17.7,12.9,17.8z"/>
</g>
</svg>
